<svg width="26" height="26" viewBox="0 0 26 26" fill="none" xmlns="http://www.w3.org/2000/svg">
<rect x="0.5" y="0.5" width="25" height="25" rx="3.5" fill="white" stroke="#F0F0F0"/>
<path d="M8.61932 20V19.027L13.3707 13.6861C13.991 12.9853 14.4905 12.3864 14.8693 11.8892C15.2481 11.392 15.5227 10.9328 15.6932 10.5114C15.8684 10.09 15.956 9.65199 15.956 9.19744C15.956 8.64347 15.8258 8.16051 15.5653 7.74858C15.3097 7.33191 14.9569 7.00758 14.5071 6.77557C14.0573 6.54356 13.5507 6.42756 12.9872 6.42756C12.3906 6.42756 11.8674 6.5554 11.4176 6.81108C10.9725 7.06676 10.6269 7.41714 10.3807 7.86222C10.1345 8.30729 10.0114 8.81865 10.0114 9.39631H8.74006C8.74006 8.59138 8.92472 7.87879 9.29403 7.25852C9.66809 6.63352 10.1771 6.14347 10.821 5.78835C11.4697 5.43324 12.2036 5.25568 13.0227 5.25568C13.8324 5.25568 14.5521 5.43087 15.1818 5.78125C15.8116 6.12689 16.3063 6.59801 16.6662 7.1946C17.026 7.79119 17.206 8.45881 17.206 9.19744C17.206 9.73248 17.1113 10.2509 16.9219 10.7528C16.7372 11.2547 16.4176 11.8134 15.9631 12.429C15.5085 13.0445 14.8788 13.7973 14.0739 14.6875L10.4659 18.7145V18.8068H17.6605V20H8.61932Z" fill="#565656"/>
</svg>
