<svg width="46" height="43" viewBox="0 0 46 43" fill="none" xmlns="http://www.w3.org/2000/svg">
<rect x="0.5" y="7.5" width="45" height="28" rx="3.5" fill="white" stroke="#F0F0F0"/>
<path d="M19.6193 29V28.027L24.3707 22.6861C24.991 21.9853 25.4905 21.3864 25.8693 20.8892C26.2481 20.392 26.5227 19.9328 26.6932 19.5114C26.8684 19.09 26.956 18.652 26.956 18.1974C26.956 17.6435 26.8258 17.1605 26.5653 16.7486C26.3097 16.3319 25.9569 16.0076 25.5071 15.7756C25.0573 15.5436 24.5507 15.4276 23.9872 15.4276C23.3906 15.4276 22.8674 15.5554 22.4176 15.8111C21.9725 16.0668 21.6269 16.4171 21.3807 16.8622C21.1345 17.3073 21.0114 17.8187 21.0114 18.3963H19.7401C19.7401 17.5914 19.9247 16.8788 20.294 16.2585C20.6681 15.6335 21.1771 15.1435 21.821 14.7884C22.4697 14.4332 23.2036 14.2557 24.0227 14.2557C24.8324 14.2557 25.5521 14.4309 26.1818 14.7812C26.8116 15.1269 27.3063 15.598 27.6662 16.1946C28.026 16.7912 28.206 17.4588 28.206 18.1974C28.206 18.7325 28.1113 19.2509 27.9219 19.7528C27.7372 20.2547 27.4176 20.8134 26.9631 21.429C26.5085 22.0445 25.8788 22.7973 25.0739 23.6875L21.4659 27.7145V27.8068H28.6605V29H19.6193Z" fill="#565656"/>
</svg>
