<svg width="26" height="26" viewBox="0 0 26 26" fill="none" xmlns="http://www.w3.org/2000/svg">
<rect x="0.5" y="0.5" width="25" height="25" rx="3.5" fill="white" stroke="#F0F0F0"/>
<path d="M13.3423 21.1989C12.4474 21.1989 11.6473 21.0379 10.9418 20.7159C10.2363 20.3892 9.67756 19.937 9.26562 19.3594C8.85369 18.7817 8.63589 18.1165 8.61222 17.3636H9.95455C9.97822 17.8939 10.1416 18.358 10.4446 18.7557C10.7476 19.1487 11.1501 19.4564 11.652 19.679C12.1539 19.8968 12.7126 20.0057 13.3281 20.0057C14.0005 20.0057 14.5923 19.8802 15.1037 19.6293C15.6198 19.3783 16.0223 19.035 16.3111 18.5994C16.6046 18.1591 16.7514 17.6619 16.7514 17.108C16.7514 16.5208 16.6023 16.0024 16.304 15.5526C16.0057 15.1027 15.5772 14.7524 15.0185 14.5014C14.4645 14.2505 13.8016 14.125 13.0298 14.125H12.1776V12.9318H13.0298C13.6596 12.9318 14.2159 12.8182 14.6989 12.5909C15.1866 12.3589 15.5701 12.0346 15.8494 11.6179C16.1288 11.2012 16.2685 10.7112 16.2685 10.1477C16.2685 9.61269 16.1477 9.14157 15.9062 8.73438C15.6648 8.32718 15.3239 8.00758 14.8835 7.77557C14.4479 7.54356 13.9389 7.42756 13.3565 7.42756C12.7931 7.42756 12.277 7.53646 11.8082 7.75426C11.3395 7.97206 10.9607 8.27983 10.6719 8.67756C10.3878 9.07528 10.2363 9.5464 10.2173 10.0909H8.93182C8.95076 9.33333 9.15909 8.66809 9.55682 8.09517C9.95928 7.51752 10.492 7.06771 11.1548 6.74574C11.8224 6.41903 12.5611 6.25568 13.3707 6.25568C14.2277 6.25568 14.9688 6.43087 15.5938 6.78125C16.2188 7.13163 16.7017 7.59801 17.0426 8.1804C17.3883 8.75805 17.5611 9.39489 17.5611 10.0909C17.5611 10.9195 17.3362 11.6297 16.8864 12.2216C16.4366 12.8087 15.8305 13.2159 15.0682 13.4432V13.5355C15.9962 13.7202 16.7254 14.1321 17.2557 14.7713C17.7907 15.4058 18.0582 16.1847 18.0582 17.108C18.0582 17.8845 17.8546 18.5829 17.4474 19.2031C17.0402 19.8187 16.4815 20.3063 15.7713 20.6662C15.0658 21.0213 14.2562 21.1989 13.3423 21.1989Z" fill="#565656"/>
</svg>
