<svg width="46" height="43" viewBox="0 0 46 43" fill="none" xmlns="http://www.w3.org/2000/svg">
<rect x="0.5" y="7.5" width="45" height="28" rx="3.5" fill="white" stroke="#F0F0F0"/>
<path d="M23.8736 29.1989C23.0639 29.1989 22.3395 29.0355 21.7003 28.7088C21.0658 28.3774 20.5592 27.9228 20.1804 27.3452C19.8063 26.7675 19.6075 26.107 19.5838 25.3636H20.8693C20.9119 26.1354 21.215 26.7699 21.7784 27.267C22.3419 27.7595 23.0402 28.0057 23.8736 28.0057C24.5223 28.0057 25.0999 27.8518 25.6065 27.544C26.1132 27.2315 26.5085 26.8054 26.7926 26.2656C27.0814 25.7211 27.2259 25.108 27.2259 24.4261C27.2211 23.7159 27.0672 23.0909 26.7642 22.5511C26.4612 22.0066 26.0492 21.5805 25.5284 21.2727C25.0123 20.965 24.4323 20.8111 23.7884 20.8111C23.3007 20.8063 22.8224 20.8868 22.3537 21.0526C21.8849 21.2183 21.4943 21.4313 21.1818 21.6918L19.8537 21.5213L20.7273 14.4545H27.9148V15.6477H21.8423L21.2599 20.5128H21.331C21.6529 20.2429 22.0436 20.0227 22.5028 19.8523C22.9669 19.6818 23.4569 19.5966 23.973 19.5966C24.83 19.5966 25.5994 19.8026 26.2812 20.2145C26.9678 20.6264 27.5099 21.1946 27.9077 21.919C28.3101 22.6387 28.5114 23.4673 28.5114 24.4048C28.5114 25.3234 28.3101 26.1449 27.9077 26.8693C27.5099 27.589 26.9607 28.1572 26.2599 28.5739C25.5639 28.9905 24.7685 29.1989 23.8736 29.1989Z" fill="#565656"/>
</svg>
