<svg width="149" height="149" viewBox="0 0 149 149" fill="none" xmlns="http://www.w3.org/2000/svg">
<path d="M71.8182 92.4091V34.8636H79.5909V92.4091H71.8182ZM46.9091 67.5V59.7727H104.5V67.5H46.9091Z" fill="#D0D0D0"/>
<path d="M42.196 105.718V106.684H45.43V105.718H42.196ZM44.94 103.436V109.96H46.102V103.436H44.94ZM37.954 110.618V111.542H44.954V112.774H37.996V115.56H39.13V113.642H46.102V110.618H37.954ZM37.996 115V115.924H46.578V115H37.996ZM38.85 103.828V105.018C38.85 106.852 37.59 108.434 35.686 109.078L36.288 110.002C38.402 109.246 39.802 107.356 39.802 105.018V103.828H38.85ZM39.046 103.828V105.018C39.046 107.16 40.446 108.98 42.49 109.708L43.092 108.798C41.258 108.196 39.984 106.67 39.984 105.018V103.828H39.046ZM57.7629 103.422V116.106H58.9249V103.422H57.7629ZM49.2929 104.5V113.054H55.2569V104.5H54.0949V107.846H50.4409V104.5H49.2929ZM50.4409 108.77H54.0949V112.102H50.4409V108.77ZM65.3953 109.456V110.422H76.8333V109.456H65.3953ZM66.8373 107.314V108.252H75.5033V107.314H66.8373ZM66.8373 103.94V107.762H67.9853V104.892H75.4053V103.94H66.8373ZM71.0933 111.514C68.3913 111.514 66.7533 112.34 66.7533 113.796C66.7533 115.252 68.3913 116.064 71.0933 116.064C73.7953 116.064 75.4333 115.252 75.4333 113.796C75.4333 112.34 73.7953 111.514 71.0933 111.514ZM71.0933 112.41C73.0813 112.41 74.2573 112.914 74.2573 113.796C74.2573 114.664 73.0813 115.154 71.0933 115.154C69.1193 115.154 67.9293 114.664 67.9293 113.796C67.9293 112.914 69.1193 112.41 71.0933 112.41ZM78.2602 110.394V111.346H89.7402V110.394H78.2602ZM79.7162 103.758V104.668H87.1222V105.97H79.7442V108.532H80.8922V106.824H88.2562V103.758H79.7162ZM79.7442 108.154V109.064H88.5362V108.154H79.7442ZM83.4122 108.63V110.87H84.5742V108.63H83.4122ZM79.5342 112.312V113.264H87.1782V115.98H88.3402V112.312H79.5342ZM99.7211 103.436V116.092H100.883V103.436H99.7211ZM100.603 108.63V109.61H102.955V108.63H100.603ZM91.0831 105.452V106.404H98.5451V105.452H91.0831ZM94.8631 107.454C93.0851 107.454 91.7831 108.658 91.7831 110.366C91.7831 112.074 93.0851 113.278 94.8631 113.278C96.6551 113.278 97.9431 112.074 97.9431 110.366C97.9431 108.658 96.6551 107.454 94.8631 107.454ZM94.8631 108.42C96.0111 108.42 96.8371 109.218 96.8371 110.366C96.8371 111.5 96.0111 112.312 94.8631 112.312C93.7151 112.312 92.8891 111.5 92.8891 110.366C92.8891 109.218 93.7151 108.42 94.8631 108.42ZM94.2611 103.59V105.886H95.4231V103.59H94.2611ZM113.244 103.436V116.092H114.406V103.436H113.244ZM109.534 104.794V104.99C109.534 108.35 107.84 111.038 104.186 112.802L104.802 113.74C109.03 111.668 110.682 108.462 110.682 104.794H109.534ZM104.76 104.794V105.746H110.038V104.794H104.76Z" fill="#AEAEAE"/>
<circle cx="74.5" cy="74.5" r="69.5" stroke="#D0D0D0" stroke-width="10"/>
</svg>
