<svg width="46" height="43" viewBox="0 0 46 43" fill="none" xmlns="http://www.w3.org/2000/svg">
<rect x="0.5" y="7.5" width="45" height="28" rx="3.5" fill="white" stroke="#F0F0F0"/>
<path d="M24.3423 29.1989C23.4474 29.1989 22.6473 29.0379 21.9418 28.7159C21.2363 28.3892 20.6776 27.937 20.2656 27.3594C19.8537 26.7817 19.6359 26.1165 19.6122 25.3636H20.9545C20.9782 25.8939 21.1416 26.358 21.4446 26.7557C21.7476 27.1487 22.1501 27.4564 22.652 27.679C23.1539 27.8968 23.7126 28.0057 24.3281 28.0057C25.0005 28.0057 25.5923 27.8802 26.1037 27.6293C26.6198 27.3783 27.0223 27.035 27.3111 26.5994C27.6046 26.1591 27.7514 25.6619 27.7514 25.108C27.7514 24.5208 27.6023 24.0024 27.304 23.5526C27.0057 23.1027 26.5772 22.7524 26.0185 22.5014C25.4645 22.2505 24.8016 22.125 24.0298 22.125H23.1776V20.9318H24.0298C24.6596 20.9318 25.2159 20.8182 25.6989 20.5909C26.1866 20.3589 26.5701 20.0346 26.8494 19.6179C27.1288 19.2012 27.2685 18.7112 27.2685 18.1477C27.2685 17.6127 27.1477 17.1416 26.9062 16.7344C26.6648 16.3272 26.3239 16.0076 25.8835 15.7756C25.4479 15.5436 24.9389 15.4276 24.3565 15.4276C23.7931 15.4276 23.277 15.5365 22.8082 15.7543C22.3395 15.9721 21.9607 16.2798 21.6719 16.6776C21.3878 17.0753 21.2363 17.5464 21.2173 18.0909H19.9318C19.9508 17.3333 20.1591 16.6681 20.5568 16.0952C20.9593 15.5175 21.492 15.0677 22.1548 14.7457C22.8224 14.419 23.5611 14.2557 24.3707 14.2557C25.2277 14.2557 25.9688 14.4309 26.5938 14.7812C27.2188 15.1316 27.7017 15.598 28.0426 16.1804C28.3883 16.758 28.5611 17.3949 28.5611 18.0909C28.5611 18.9195 28.3362 19.6297 27.8864 20.2216C27.4366 20.8087 26.8305 21.2159 26.0682 21.4432V21.5355C26.9962 21.7202 27.7254 22.1321 28.2557 22.7713C28.7907 23.4058 29.0582 24.1847 29.0582 25.108C29.0582 25.8845 28.8546 26.5829 28.4474 27.2031C28.0402 27.8187 27.4815 28.3063 26.7713 28.6662C26.0658 29.0213 25.2562 29.1989 24.3423 29.1989Z" fill="#565656"/>
</svg>
