<svg width="74" height="34" viewBox="0 0 74 34" fill="none" xmlns="http://www.w3.org/2000/svg">
<rect width="74" height="34" rx="10" fill="#D9D9D9"/>
<path d="M25.5413 15.5215V17.8415H27.2013V15.5215H25.5413ZM33.1613 7.06152V19.1815H34.8213V7.06152H33.1613ZM34.1213 12.5215V13.9015H37.4613V12.5215H34.1213ZM20.9213 18.6615C24.0813 18.6415 28.3613 18.6215 32.2213 17.9415L32.0813 16.7615C28.3413 17.3015 23.9413 17.3015 20.7013 17.3015L20.9213 18.6615ZM22.9413 20.0815V21.4015H33.1613V25.1215H34.8213V20.0815H22.9413ZM21.1613 8.68152V9.92152H31.5413V8.68152H21.1613ZM26.3613 10.6215C23.8013 10.6215 22.1413 11.6415 22.1413 13.3015C22.1413 14.9615 23.8013 15.9815 26.3613 15.9815C28.9013 15.9815 30.5613 14.9615 30.5613 13.3015C30.5613 11.6415 28.9013 10.6215 26.3613 10.6215ZM26.3613 11.7615C27.9613 11.7615 29.0013 12.3415 29.0013 13.3015C29.0013 14.2215 27.9613 14.8215 26.3613 14.8215C24.7413 14.8215 23.7013 14.2215 23.7013 13.3015C23.7013 12.3415 24.7413 11.7615 26.3613 11.7615ZM25.5413 6.90152V9.28152H27.2013V6.90152H25.5413ZM52.3597 7.06152V20.2615H54.0397V7.06152H52.3597ZM42.4197 23.3615V24.7215H54.5797V23.3615H42.4197ZM42.4197 18.9015V23.8215H44.0597V18.9015H42.4197ZM44.3397 8.30152C41.6397 8.30152 39.6197 10.1415 39.6197 12.7615C39.6197 15.3615 41.6397 17.2215 44.3397 17.2215C47.0397 17.2215 49.0397 15.3615 49.0397 12.7615C49.0397 10.1415 47.0397 8.30152 44.3397 8.30152ZM44.3397 9.74152C46.0997 9.74152 47.4397 10.9815 47.4397 12.7615C47.4397 14.5215 46.0997 15.7615 44.3397 15.7615C42.5797 15.7615 41.2397 14.5215 41.2397 12.7615C41.2397 10.9815 42.5797 9.74152 44.3397 9.74152Z" fill="white"/>
</svg>
