<svg width="74" height="34" viewBox="0 0 74 34" fill="none" xmlns="http://www.w3.org/2000/svg">
<rect width="74" height="34" rx="10" fill="#D9D9D9"/>
<path d="M25.9613 10.2015V10.4415C25.9613 12.3615 24.2013 14.0415 21.6213 14.6215L22.3013 15.9415C25.3613 15.1815 27.3213 13.1015 27.3213 10.4415V10.2015H25.9613ZM26.2613 10.2015V10.4415C26.2613 12.9815 28.2213 14.9615 31.2413 15.6815L31.9213 14.3815C29.3613 13.8015 27.6213 12.2615 27.6213 10.4415V10.2015H26.2613ZM22.0013 9.08152V10.4015H31.5813V9.08152H22.0013ZM25.9413 7.08152V9.96152H27.6213V7.08152H25.9413ZM25.9813 17.3815V24.6015H27.6413V17.3815H25.9813ZM33.9813 7.04152V25.1415H35.6213V7.04152H33.9813ZM21.0013 18.6015C24.3613 18.6015 28.7613 18.5415 32.8213 17.8415L32.7013 16.6215C28.7413 17.1815 24.2013 17.2015 20.7813 17.2015L21.0013 18.6015ZM39.2197 21.4015V22.7815H55.5997V21.4015H39.2197ZM46.4997 17.0215V21.8615H48.1397V17.0215H46.4997ZM46.4597 8.24152V9.64152C46.4597 12.6215 43.0397 15.2815 39.8597 15.8615L40.5597 17.2415C44.1997 16.4815 47.8997 13.5015 47.8997 9.64152V8.24152H46.4597ZM46.7597 8.24152V9.64152C46.7597 13.5015 50.4597 16.4815 54.0997 17.2415L54.8197 15.8615C51.6397 15.2815 48.1997 12.6415 48.1997 9.64152V8.24152H46.7597Z" fill="white"/>
</svg>
