<svg width="50" height="26" viewBox="0 0 50 26" fill="none" xmlns="http://www.w3.org/2000/svg">
<path d="M13.3931 10.384V11.232H15.2171V10.384H13.3931ZM14.7451 9.304V13.064H15.8091V9.304H14.7451ZM10.9131 13.376V14.192H14.7531V14.6H10.9291V16.296H11.9771V15.368H15.8091V13.376H10.9131ZM10.9291 15.808V16.632H16.0171V15.808H10.9291ZM11.3051 9.544V10.072C11.3051 11.016 10.7851 11.92 9.55306 12.288L10.0971 13.128C11.5131 12.68 12.1691 11.472 12.1691 10.072V9.544H11.3051ZM11.5131 9.544V10.072C11.5131 11.4 12.1451 12.544 13.4971 12.984L14.0411 12.16C12.8731 11.808 12.3771 10.952 12.3771 10.072V9.544H11.5131ZM22.0484 9.296V16.728H23.1204V9.296H22.0484ZM17.3364 9.888V15H20.9764V9.888H19.9204V11.688H18.3924V9.888H17.3364ZM18.3924 12.512H19.9204V14.144H18.3924V12.512ZM31.7282 9.304V16.712H32.7442V9.304H31.7282ZM30.2642 9.448V16.368H31.2562V9.448H30.2642ZM26.3682 10.12V10.968H29.7362V10.12H26.3682ZM26.3522 15.064C27.2962 15.064 28.7842 15.04 29.9042 14.824L29.8402 14.056C28.7602 14.184 27.2082 14.2 26.2402 14.2L26.3522 15.064ZM26.8322 10.68V14.392H27.7842V10.68H26.8322ZM28.3282 10.68V14.392H29.2802V10.68H28.3282ZM29.5762 11.344V12.208H30.8162V11.344H29.5762ZM29.5762 12.824V13.688H30.8162V12.824H29.5762ZM38.7756 9.304V16.712H39.8476V9.304H38.7756ZM36.5916 10.072V10.264C36.5916 12.248 35.8236 13.592 33.6956 14.616L34.2476 15.464C36.8796 14.192 37.6476 12.336 37.6476 10.072H36.5916ZM34.0876 10.072V10.912H37.0956V10.072H34.0876Z" fill="#CC1A1A"/>
<g filter="url(#filter0_d_233_2428)">
<rect x="2.5" y="2.5" width="45" height="21" rx="3.5" stroke="#F2F2F2" shape-rendering="crispEdges"/>
</g>
<defs>
<filter id="filter0_d_233_2428" x="0" y="0" width="50" height="26" filterUnits="userSpaceOnUse" color-interpolation-filters="sRGB">
<feFlood flood-opacity="0" result="BackgroundImageFix"/>
<feColorMatrix in="SourceAlpha" type="matrix" values="0 0 0 0 0 0 0 0 0 0 0 0 0 0 0 0 0 0 127 0" result="hardAlpha"/>
<feOffset/>
<feGaussianBlur stdDeviation="1"/>
<feComposite in2="hardAlpha" operator="out"/>
<feColorMatrix type="matrix" values="0 0 0 0 0 0 0 0 0 0 0 0 0 0 0 0 0 0 0.25 0"/>
<feBlend mode="normal" in2="BackgroundImageFix" result="effect1_dropShadow_233_2428"/>
<feBlend mode="normal" in="SourceGraphic" in2="effect1_dropShadow_233_2428" result="shape"/>
</filter>
</defs>
</svg>
