<svg width="184" height="30" viewBox="0 0 184 30" fill="none" xmlns="http://www.w3.org/2000/svg">
<path d="M8.00163 4.696V9.4C8.00163 14.296 4.51363 19.8 0.385625 21.816L1.92163 23.928C6.43363 21.624 10.1136 15.416 10.1136 9.4V4.696H8.00163ZM8.48163 4.696V9.4C8.48163 15.128 11.9696 20.952 16.5456 23.224L18.0496 21.112C13.8576 19.128 10.5936 13.976 10.5936 9.4V4.696H8.48163ZM1.40963 3.512V5.752H16.9936V3.512H1.40963ZM20.4176 0.567999V29.496H23.1056V0.567999H20.4176ZM22.4656 12.248V14.488H27.8416V12.248H22.4656ZM41.6951 10.904V13.112H47.2311V10.904H41.6951ZM36.2871 3.288V8.792C36.2871 13.752 33.9191 18.936 29.9511 21.272L31.6151 23.288C35.8391 20.696 38.3671 14.84 38.3671 8.792V3.288H36.2871ZM36.7991 3.288V8.696C36.7991 14.328 39.1351 20.088 43.2951 22.648L44.8311 20.568C41.0231 18.264 38.8471 13.336 38.8471 8.696V3.288H36.7991ZM52.3191 0.567999V29.496H54.8791V0.567999H52.3191ZM46.4631 1.176V28.056H48.9591V1.176H46.4631ZM80.7326 0.567999V29.496H83.3886V0.567999H80.7326ZM60.3806 5.24V7.384H77.7246V5.24H60.3806ZM69.0846 9.752C64.9246 9.752 61.9486 12.504 61.9486 16.408C61.9486 20.312 64.9246 23.064 69.0846 23.064C73.2446 23.064 76.2526 20.312 76.2526 16.408C76.2526 12.504 73.2446 9.752 69.0846 9.752ZM69.0846 11.96C71.7406 11.96 73.6926 13.784 73.6926 16.408C73.6926 19 71.7406 20.856 69.0846 20.856C66.4286 20.856 64.4766 19 64.4766 16.408C64.4766 13.784 66.4286 11.96 69.0846 11.96ZM67.7086 0.855999V6.552H70.3646V0.855999H67.7086ZM89.1781 23.608V25.816H115.386V23.608H89.1781ZM100.89 16.696V24.248H103.546V16.696H100.89ZM92.2501 2.616V17.4H112.25V2.616H109.626V7.768H94.8741V2.616H92.2501ZM94.8741 9.912H109.626V15.224H94.8741V9.912ZM139.672 0.567999V29.496H142.328V0.567999H139.672ZM131.192 3.672V4.12C131.192 11.8 127.32 17.944 118.968 21.976L120.376 24.12C130.04 19.384 133.816 12.056 133.816 3.672H131.192ZM120.28 3.672V5.848H132.344V3.672H120.28ZM158.453 29.9091V0.81818L183.18 15.3636L158.453 29.9091Z" fill="black"/>
</svg>
