<svg width="337" height="165" viewBox="0 0 337 165" fill="none" xmlns="http://www.w3.org/2000/svg">
<rect width="337" height="165" rx="14" fill="white"/>
<path d="M133.62 63.92V100.12H136.98V63.92H133.62ZM136.06 78.6V81.36H142.74V78.6H136.06ZM124.38 67.84V68.36C124.38 77.92 119.38 85.64 109.38 90.72L111.22 93.28C122.9 87.4 127.62 78.12 127.62 67.84H124.38ZM111.06 67.84V70.56H126.1V67.84H111.06ZM145.977 81.76V84.48H178.657V81.76H145.977ZM160.657 75.96V82.88H163.937V75.96H160.657ZM150.097 74.92V77.64H174.857V74.92H150.097ZM150.097 65.6V76.52H153.377V68.28H174.577V65.6H150.097ZM162.257 87.08C154.537 87.08 149.857 89.44 149.857 93.56C149.857 97.76 154.537 100.08 162.257 100.08C169.977 100.08 174.657 97.76 174.657 93.56C174.657 89.44 169.977 87.08 162.257 87.08ZM162.257 89.64C167.937 89.64 171.297 91.08 171.297 93.56C171.297 96.08 167.937 97.48 162.257 97.48C156.617 97.48 153.217 96.08 153.217 93.56C153.217 91.08 156.617 89.64 162.257 89.64ZM208.663 82.04V88.36H211.983V82.04H208.663ZM193.983 80.88V83.56H226.663V80.88H193.983ZM210.303 87.36C202.543 87.36 197.903 89.64 197.903 93.72C197.903 97.76 202.543 100.04 210.303 100.04C218.063 100.04 222.703 97.76 222.703 93.72C222.703 89.64 218.063 87.36 210.303 87.36ZM210.303 89.92C215.983 89.92 219.343 91.28 219.343 93.72C219.343 96.12 215.983 97.48 210.303 97.48C204.663 97.48 201.263 96.12 201.263 93.72C201.263 91.28 204.663 89.92 210.303 89.92ZM208.183 66.92V68C208.183 72.12 202.303 75.36 195.823 76.04L197.023 78.68C204.503 77.76 211.143 73.84 211.143 68V66.92H208.183ZM209.583 66.92V68C209.583 73.84 216.183 77.76 223.663 78.68L224.863 76.04C218.383 75.36 212.503 72.12 212.503 68V66.92H209.583ZM196.983 65.6V68.28H223.743V65.6H196.983Z" fill="#C73838"/>
</svg>
