<svg width="337" height="165" viewBox="0 0 337 165" fill="none" xmlns="http://www.w3.org/2000/svg">
<rect width="337" height="165" rx="14" fill="white"/>
<path d="M134.585 73V75.76H142.625V73H134.585ZM141.705 63.96V85.12H145.025V63.96H141.705ZM121.585 86.88V99.64H145.025V86.88H121.585ZM141.785 89.52V96.96H124.825V89.52H141.785ZM124.505 67.4V70.32C124.505 75.44 120.785 80.24 115.385 82.16L117.105 84.8C123.145 82.56 127.225 76.92 127.225 70.32V67.4H124.505ZM125.145 67.4V70.28C125.145 76.36 129.025 81.84 134.905 83.96L136.585 81.32C131.345 79.48 127.825 74.96 127.825 70.28V67.4H125.145ZM116.425 66.28V68.96H135.745V66.28H116.425ZM167.142 66.28V67.68C167.142 74.4 161.622 79.64 152.462 82.24L153.822 84.84C164.222 81.92 170.622 75.4 170.622 66.28H167.142ZM154.342 66.28V68.96H169.382V66.28H154.342ZM178.502 63.96V84.6H181.822V63.96H178.502ZM170.662 73.24V76H179.142V73.24H170.662ZM158.502 86.12V99.64H181.822V86.12H158.502ZM178.582 88.8V96.92H161.782V88.8H178.582ZM203.538 82.04V88.36H206.858V82.04H203.538ZM188.858 80.88V83.56H221.538V80.88H188.858ZM205.178 87.36C197.418 87.36 192.778 89.64 192.778 93.72C192.778 97.76 197.418 100.04 205.178 100.04C212.938 100.04 217.578 97.76 217.578 93.72C217.578 89.64 212.938 87.36 205.178 87.36ZM205.178 89.92C210.858 89.92 214.218 91.28 214.218 93.72C214.218 96.12 210.858 97.48 205.178 97.48C199.538 97.48 196.138 96.12 196.138 93.72C196.138 91.28 199.538 89.92 205.178 89.92ZM203.058 66.92V68C203.058 72.12 197.178 75.36 190.698 76.04L191.898 78.68C199.378 77.76 206.018 73.84 206.018 68V66.92H203.058ZM204.458 66.92V68C204.458 73.84 211.058 77.76 218.538 78.68L219.738 76.04C213.258 75.36 207.378 72.12 207.378 68V66.92H204.458ZM191.858 65.6V68.28H218.618V65.6H191.858Z" fill="#C73838"/>
</svg>
