<svg width="337" height="165" viewBox="0 0 337 165" fill="none" xmlns="http://www.w3.org/2000/svg">
<rect width="337" height="165" rx="14" fill="white"/>
<path d="M48.2698 44.96V47.08H52.8298V44.96H48.2698ZM51.6498 42.26V51.66H54.3098V42.26H51.6498ZM42.0698 52.44V54.48H51.6698V55.5H42.1098V59.74H44.7298V57.42H54.3098V52.44H42.0698ZM42.1098 58.52V60.58H54.8298V58.52H42.1098ZM43.0498 42.86V44.18C43.0498 46.54 41.7498 48.8 38.6698 49.72L40.0298 51.82C43.5698 50.7 45.2098 47.68 45.2098 44.18V42.86H43.0498ZM43.5698 42.86V44.18C43.5698 47.5 45.1498 50.36 48.5298 51.46L49.8898 49.4C46.9698 48.52 45.7298 46.38 45.7298 44.18V42.86H43.5698ZM69.9082 42.24V60.82H72.5882V42.24H69.9082ZM58.1282 43.72V56.5H67.2282V43.72H64.5882V48.22H60.7682V43.72H58.1282ZM60.7682 50.28H64.5882V54.36H60.7682V50.28ZM94.1076 42.26V60.78H96.6476V42.26H94.1076ZM90.4476 42.62V59.92H92.9276V42.62H90.4476ZM80.7076 44.3V46.42H89.1276V44.3H80.7076ZM80.6676 56.66C83.0276 56.66 86.7476 56.6 89.5476 56.06L89.3876 54.14C86.6876 54.46 82.8076 54.5 80.3876 54.5L80.6676 56.66ZM81.8676 45.7V54.98H84.2476V45.7H81.8676ZM85.6076 45.7V54.98H87.9876V45.7H85.6076ZM88.7276 47.36V49.52H91.8276V47.36H88.7276ZM88.7276 51.06V53.22H91.8276V51.06H88.7276ZM111.726 42.26V60.78H114.406V42.26H111.726ZM106.266 44.18V44.66C106.266 49.62 104.346 52.98 99.026 55.54L100.406 57.66C106.986 54.48 108.906 49.84 108.906 44.18H106.266ZM100.006 44.18V46.28H107.526V44.18H100.006ZM117.364 50.56V52.5H134.144V50.56H117.364ZM119.244 53.42V55.22H129.524V56.14H119.284V59.4H121.924V57.82H132.144V53.42H119.244ZM119.284 58.84V60.64H132.664V58.84H119.284ZM119.424 42.58V44.36H129.484V45.28H119.444V48.46H122.084V46.94H132.104V42.58H119.424ZM119.444 47.9V49.7H132.444V47.9H119.444ZM145.224 44.32V45.88C145.224 48.22 143.884 50.62 140.804 51.62L142.164 53.7C145.724 52.54 147.424 49.38 147.424 45.88V44.32H145.224ZM145.764 44.32V45.88C145.764 49.24 147.444 52.26 150.924 53.36L152.284 51.3C149.264 50.34 147.944 48.08 147.944 45.88V44.32H145.764ZM141.504 43.58V45.68H151.584V43.58H141.504ZM153.444 42.28V55.64H156.124V42.28H153.444ZM143.784 58.34V60.46H156.584V58.34H143.784ZM143.784 54.44V59.4H146.444V54.44H143.784ZM172.382 42.26V53.86H174.902V42.26H172.382ZM170.122 46.82V48.98H173.082V46.82H170.122ZM168.542 42.62V53.26H171.022V42.62H168.542ZM159.042 44.16V46.2H168.022V44.16H159.042ZM163.562 46.8C161.242 46.8 159.562 48.12 159.562 50.04C159.562 51.96 161.242 53.26 163.562 53.26C165.882 53.26 167.562 51.96 167.562 50.04C167.562 48.12 165.882 46.8 163.562 46.8ZM163.562 48.7C164.522 48.7 165.182 49.18 165.182 50.04C165.182 50.9 164.522 51.38 163.562 51.38C162.582 51.38 161.922 50.9 161.922 50.04C161.922 49.18 162.582 48.7 163.562 48.7ZM162.222 42.44V45.56H164.842V42.44H162.222ZM168.642 54.06C164.662 54.06 162.262 55.26 162.262 57.42C162.262 59.56 164.662 60.78 168.642 60.78C172.602 60.78 175.002 59.56 175.002 57.42C175.002 55.26 172.602 54.06 168.642 54.06ZM168.642 56.04C171.102 56.04 172.342 56.46 172.342 57.42C172.342 58.36 171.102 58.8 168.642 58.8C166.162 58.8 164.922 58.36 164.922 57.42C164.922 56.46 166.162 56.04 168.642 56.04ZM189.401 42.26V60.78H192.041V42.26H189.401ZM191.441 49.48V51.7H194.721V49.48H191.441ZM177.441 45V47.12H188.221V45H177.441ZM182.861 48.16C180.161 48.16 178.161 50 178.161 52.58C178.161 55.16 180.161 57 182.861 57C185.561 57 187.561 55.16 187.561 52.58C187.561 50 185.561 48.16 182.861 48.16ZM182.861 50.32C184.121 50.32 185.021 51.16 185.021 52.58C185.021 54 184.121 54.84 182.861 54.84C181.601 54.84 180.701 54 180.701 52.58C180.701 51.16 181.601 50.32 182.861 50.32ZM181.521 42.56V45.8H184.181V42.56H181.521ZM200.439 43.68V46.38C200.439 49.98 198.919 53.54 195.699 54.94L197.279 57.14C200.959 55.44 202.599 51.14 202.599 46.38V43.68H200.439ZM200.959 43.68V46.38C200.959 50.94 202.599 55.06 206.179 56.7L207.739 54.56C204.579 53.2 203.119 49.8 203.119 46.38V43.68H200.959ZM208.619 42.24V60.82H211.299V42.24H208.619ZM219.758 43.52V44.48C219.758 47.62 218.178 49.86 214.318 51.38L215.618 53.32C220.358 51.36 222.438 48.2 222.438 43.52H219.758ZM215.278 43.52V45.66H220.798V43.52H215.278ZM227.578 42.26V52.78H230.098V42.26H227.578ZM220.278 47.08V49.18H224.198V47.08H220.278ZM223.818 42.62V52.54H226.298V42.62H223.818ZM218.598 53.36V54.18C218.598 56 217.558 57.86 215.138 58.7L216.438 60.64C219.338 59.58 220.578 57 220.578 54.18V53.36H218.598ZM219.258 53.36V54.18C219.258 56.92 220.318 59.7 223.258 60.8L224.338 58.86C222.058 57.9 221.158 56 221.158 54.18V53.36H219.258ZM225.318 53.36V54.18C225.318 55.82 224.418 57.82 222.138 58.86L223.258 60.8C226.138 59.66 227.218 56.76 227.218 54.18V53.36H225.318ZM225.938 53.36V54.18C225.938 57.12 227.158 59.62 230.098 60.64L231.378 58.7C228.958 57.94 227.938 56.12 227.938 54.18V53.36H225.938ZM234.676 53.36V60.58H247.356V53.36H244.716V54.92H237.296V53.36H234.676ZM237.296 56.9H244.716V58.5H237.296V56.9ZM232.716 50.34V52.44H249.456V50.34H232.716ZM239.736 42.46V43.02C239.736 44.9 237.716 46.96 233.536 47.46L234.476 49.52C239.256 48.9 242.016 46.24 242.016 43.02V42.46H239.736ZM240.176 42.46V43.02C240.176 46.22 242.916 48.9 247.696 49.52L248.636 47.46C244.476 46.96 242.456 44.88 242.456 43.02V42.46H240.176ZM263.934 42.26V60.78H266.594V42.26H263.934ZM252.094 44.02V55.52H254.734V44.02H252.094ZM252.094 53.96V56.22H253.734C256.554 56.22 259.614 56.02 262.794 55.36L262.494 53.16C259.434 53.76 256.434 53.96 253.734 53.96H252.094ZM281.573 42.26V60.78H284.233V42.26H281.573ZM283.413 49.5V51.7H286.633V49.5H283.413ZM272.493 44.14V44.46C272.493 49.16 271.993 52.24 269.133 55.4L271.213 56.9C274.493 53.22 274.973 49.28 274.973 44.14H272.493ZM269.953 44.14V46.3H273.533V44.14H269.953ZM277.593 44.14V44.44C277.593 49.5 277.133 53.06 274.333 56.6L276.413 58.08C279.633 54.06 280.073 49.52 280.073 44.14H277.593ZM275.593 44.14V46.3H278.693V44.14H275.593ZM290.89 54.7244V54.5398C290.894 53.6828 290.975 53.0009 291.131 52.4943C291.292 51.9877 291.519 51.5805 291.813 51.2727C292.107 50.9602 292.464 50.6738 292.885 50.4134C293.174 50.2334 293.432 50.0369 293.66 49.8239C293.892 49.6061 294.074 49.3646 294.206 49.0994C294.339 48.8295 294.405 48.5289 294.405 48.1974C294.405 47.8234 294.318 47.4991 294.143 47.2244C293.967 46.9498 293.731 46.7367 293.432 46.5852C293.139 46.4337 292.81 46.358 292.445 46.358C292.109 46.358 291.789 46.4313 291.486 46.5781C291.188 46.7202 290.939 46.938 290.741 47.2315C290.546 47.5204 290.438 47.8873 290.414 48.3324H287.885C287.909 47.4328 288.127 46.6799 288.539 46.0739C288.956 45.4678 289.505 45.0133 290.187 44.7102C290.873 44.4072 291.631 44.2557 292.459 44.2557C293.364 44.2557 294.159 44.4143 294.846 44.7315C295.537 45.0488 296.074 45.5009 296.458 46.0881C296.846 46.6705 297.04 47.3617 297.04 48.1619C297.04 48.7017 296.953 49.1847 296.778 49.6108C296.607 50.0369 296.363 50.4157 296.046 50.7472C295.729 51.0786 295.352 51.3745 294.917 51.6349C294.533 51.8717 294.218 52.1179 293.972 52.3736C293.731 52.6293 293.551 52.9299 293.432 53.2756C293.319 53.6165 293.26 54.0379 293.255 54.5398V54.7244H290.89ZM292.126 59.1562C291.699 59.1562 291.332 59.0047 291.025 58.7017C290.717 58.3987 290.563 58.0294 290.563 57.5938C290.563 57.1676 290.717 56.803 291.025 56.5C291.332 56.197 291.699 56.0455 292.126 56.0455C292.547 56.0455 292.912 56.197 293.219 56.5C293.532 56.803 293.688 57.1676 293.688 57.5938C293.688 57.8826 293.615 58.1454 293.468 58.3821C293.326 58.6188 293.136 58.8082 292.9 58.9503C292.668 59.0876 292.41 59.1562 292.126 59.1562Z" fill="#BD1B1B"/>
<path d="M99.3479 75.4V80.824H100.012V75.4H99.3479ZM99.8039 77.768V78.328H101.084V77.768H99.8039ZM94.4199 76.272V76.808H98.6919V76.272H94.4199ZM96.5559 77.208C95.5239 77.208 94.8199 77.744 94.8199 78.56C94.8199 79.368 95.5239 79.904 96.5559 79.904C97.5799 79.904 98.2839 79.368 98.2839 78.56C98.2839 77.744 97.5799 77.208 96.5559 77.208ZM96.5559 77.728C97.2039 77.728 97.6519 78.056 97.6519 78.56C97.6519 79.056 97.2039 79.384 96.5559 79.384C95.8999 79.384 95.4519 79.056 95.4519 78.56C95.4519 78.056 95.8999 77.728 96.5559 77.728ZM96.2199 75.392V76.552H96.8839V75.392H96.2199ZM95.5079 81.92V82.464H100.34V81.92H95.5079ZM95.5079 80.392V82.152H96.1719V80.392H95.5079ZM105.171 77.432V77.976H107.251V77.432H105.171ZM107.043 75.4V80.752H107.707V75.4H107.043ZM103.059 81.92V82.464H107.883V81.92H103.059ZM103.059 80.232V82.2H103.723V80.232H103.059ZM102.115 75.872V79.52H105.379V75.872H104.731V77.152H102.771V75.872H102.115ZM102.771 77.672H104.731V78.976H102.771V77.672ZM113.277 76.016V77.312C113.277 78.68 112.405 80.064 111.333 80.576L111.741 81.12C112.925 80.52 113.821 78.976 113.821 77.312V76.016H113.277ZM113.389 76.016V77.312C113.389 78.92 114.293 80.408 115.469 80.984L115.869 80.456C114.797 79.96 113.933 78.632 113.933 77.312V76.016H113.389ZM116.621 75.384V82.632H117.285V75.384H116.621ZM120.508 76.136V76.72C120.508 77.752 119.788 78.68 118.692 79.064L119.044 79.584C120.252 79.152 121.052 78.048 121.052 76.72V76.136H120.508ZM120.628 76.136V76.712C120.628 77.96 121.396 79.024 122.588 79.44L122.932 78.92C121.868 78.56 121.172 77.672 121.172 76.712V76.136H120.628ZM118.9 75.896V76.44H122.764V75.896H118.9ZM123.676 75.392V79.744H124.34V75.392H123.676ZM124.156 77.296V77.848H125.412V77.296H124.156ZM119.644 80.128V80.68H123.676V82.624H124.34V80.128H119.644ZM126.763 77.752V78.296H130.251V77.752H126.763ZM128.155 78.08V79.528H128.819V78.08H128.155ZM126.763 75.864V77.992H127.427V76.408H130.203V75.864H126.763ZM131.339 75.392V80.8H132.003V75.392H131.339ZM127.331 81.92V82.464H132.243V81.92H127.331ZM127.331 80.448V82.152H127.987V80.448H127.331ZM126.211 79.888C127.563 79.888 129.275 79.848 130.803 79.624L130.763 79.136C129.275 79.312 127.515 79.344 126.123 79.344L126.211 79.888ZM141.237 75.392V82.624H141.877V75.392H141.237ZM139.845 75.568V82.248H140.477V75.568H139.845ZM135.765 76.296V76.84H139.069V76.296H135.765ZM135.701 80.864C136.645 80.864 138.141 80.832 139.261 80.632L139.221 80.144C138.141 80.28 136.581 80.304 135.621 80.304L135.701 80.864ZM136.365 76.656V80.44H136.973V76.656H136.365ZM137.869 76.656V80.44H138.477V76.656H137.869ZM138.901 77.448V77.992H140.189V77.448H138.901ZM138.901 78.984V79.528H140.189V78.984H138.901ZM148.324 75.392V82.624H148.988V75.392H148.324ZM146.204 76.168V76.28C146.204 78.2 145.236 79.736 143.148 80.744L143.5 81.28C145.916 80.096 146.86 78.264 146.86 76.168H146.204ZM143.476 76.168V76.712H146.492V76.168H143.476ZM152.99 76.184V76.72H156.262V76.184H152.99ZM154.118 78.248V80.696H154.774V78.248H154.118ZM155.99 76.184V76.568C155.99 77.152 155.99 78.08 155.774 79.384L156.43 79.448C156.638 78.104 156.638 77.16 156.638 76.568V76.184H155.99ZM157.55 75.392V82.624H158.206V75.392H157.55ZM158.03 78.416V78.976H159.366V78.416H158.03ZM152.67 81.048C153.95 81.04 155.646 81.008 157.142 80.768L157.11 80.28C155.646 80.464 153.902 80.488 152.59 80.488L152.67 81.048ZM163.885 77.264V77.816H165.517V77.264H163.885ZM165.309 75.392V79.704H165.973V75.392H165.309ZM163.597 79.92C162.101 79.92 161.181 80.424 161.181 81.272C161.181 82.128 162.101 82.616 163.597 82.616C165.085 82.616 166.005 82.128 166.005 81.272C166.005 80.424 165.085 79.92 163.597 79.92ZM163.597 80.44C164.685 80.44 165.349 80.744 165.349 81.272C165.349 81.792 164.685 82.096 163.597 82.096C162.509 82.096 161.845 81.792 161.845 81.272C161.845 80.744 162.509 80.44 163.597 80.44ZM161.869 76.12V76.704C161.869 77.744 161.125 78.712 160.053 79.104L160.397 79.632C161.597 79.184 162.413 78.04 162.413 76.704V76.12H161.869ZM161.997 76.12V76.704C161.997 77.92 162.773 79.008 163.949 79.432L164.285 78.904C163.237 78.536 162.533 77.64 162.533 76.704V76.12H161.997ZM160.253 75.92V76.464H164.117V75.92H160.253ZM167.38 79.192V79.736H173.916V79.192H167.38ZM168.228 81.92V82.464H173.196V81.92H168.228ZM168.228 80.368V82.088H168.892V80.368H168.228ZM170.652 75.632C169.1 75.632 168.108 76.176 168.108 77.08C168.108 77.976 169.1 78.52 170.652 78.52C172.196 78.52 173.196 77.976 173.196 77.08C173.196 76.176 172.196 75.632 170.652 75.632ZM170.652 76.176C171.788 76.176 172.516 76.512 172.516 77.08C172.516 77.648 171.788 77.984 170.652 77.984C169.516 77.984 168.788 77.648 168.788 77.08C168.788 76.512 169.516 76.176 170.652 76.176ZM177.566 78.504V79.048H181.27V78.504H177.566ZM179.046 78.936V80.6H179.718V78.936H179.046ZM177.566 76.072V78.696H178.23V76.616H181.23V76.072H177.566ZM182.222 75.384V82.632H182.886V75.384H182.222ZM177.126 81.064C178.494 81.072 180.222 81.04 181.806 80.8L181.75 80.304C180.222 80.488 178.446 80.504 177.03 80.512L177.126 81.064ZM187.293 77.576V78.872H187.949V77.576H187.293ZM185.221 77.312V77.848H190.117V77.312H185.221ZM185.221 75.672V77.6H185.877V76.208H190.037V75.672H185.221ZM184.349 78.528V79.064H190.885V78.528H184.349ZM185.141 79.672V80.184H189.397V80.816H185.157V82.176H185.813V81.304H190.053V79.672H185.141ZM185.157 82.024V82.544H190.269V82.024H185.157ZM192.076 78.392V78.92H192.66C194.092 78.92 195.028 78.888 196.172 78.704L196.108 78.184C194.988 78.36 194.068 78.392 192.66 78.392H192.076ZM192.06 75.736V76.248H194.716V77.04H192.076V78.648H192.724V77.528H195.364V75.736H192.06ZM192.964 79.52V80.04H196.972V80.744H192.98V82.256H193.644V81.232H197.644V79.52H192.964ZM192.98 82.024V82.544H197.884V82.024H192.98ZM196.972 75.392V79.192H197.644V75.392H196.972ZM204.246 75.648V76.048C204.246 77.08 202.974 77.944 201.654 78.144L201.918 78.68C203.422 78.424 204.83 77.432 204.83 76.048V75.648H204.246ZM204.366 75.648V76.048C204.366 77.416 205.782 78.424 207.27 78.68L207.534 78.144C206.23 77.944 204.942 77.056 204.942 76.048V75.648H204.366ZM204.246 79.872V82.624H204.902V79.872H204.246ZM201.326 79.464V80.016H207.862V79.464H201.326ZM211.759 79.632V82.528H214.263V79.632H213.647V80.536H212.383V79.632H211.759ZM212.383 81.032H213.647V82.008H212.383V81.032ZM215.663 79.592V80.192C215.663 80.928 215.215 81.72 214.343 82.088L214.679 82.592C215.679 82.168 216.175 81.176 216.175 80.192V79.592H215.663ZM215.799 79.592V80.192C215.799 81.216 216.287 82.176 217.295 82.592L217.631 82.088C216.759 81.752 216.311 80.968 216.311 80.192V79.592H215.799ZM214.567 77.088V77.64H216.511V77.088H214.567ZM212.903 75.712C211.823 75.712 211.039 76.384 211.039 77.376C211.039 78.36 211.823 79.04 212.903 79.04C213.983 79.04 214.767 78.36 214.767 77.376C214.767 76.384 213.983 75.712 212.903 75.712ZM212.903 76.264C213.615 76.264 214.127 76.72 214.127 77.376C214.127 78.024 213.615 78.488 212.903 78.488C212.191 78.488 211.679 78.024 211.679 77.376C211.679 76.72 212.191 76.264 212.903 76.264ZM216.215 75.392V79.224H216.879V75.392H216.215ZM219.119 79.728V82.528H223.975V79.728H223.311V80.568H219.775V79.728H219.119ZM219.775 81.08H223.311V81.992H219.775V81.08ZM218.287 78.688V79.224H224.823V78.688H218.287ZM221.223 75.472V75.792C221.223 76.704 219.967 77.48 218.663 77.656L218.903 78.176C220.391 77.952 221.791 77.048 221.791 75.792V75.472H221.223ZM221.327 75.472V75.792C221.327 77.032 222.735 77.952 224.207 78.176L224.455 77.656C223.167 77.48 221.895 76.688 221.895 75.792V75.472H221.327ZM230.91 75.392V82.624H231.574V75.392H230.91ZM226.11 76.096V80.576H226.766V76.096H226.11ZM226.11 80.184V80.76H226.702C227.846 80.76 228.99 80.672 230.246 80.416L230.166 79.848C228.942 80.104 227.798 80.184 226.702 80.184H226.11ZM237.901 75.384V82.632H238.573V75.384H237.901ZM238.413 78.24V78.8H239.757V78.24H238.413ZM233.317 80.272V80.832H233.885C235.245 80.832 236.197 80.792 237.309 80.584L237.237 80.024C236.157 80.224 235.221 80.272 233.885 80.272H233.317ZM233.317 76.088V80.52H233.973V76.632H236.677V76.088H233.317ZM240.984 82.0341C240.927 82.0341 240.879 82.0142 240.839 81.9744C240.799 81.9347 240.779 81.8864 240.779 81.8295C240.779 81.7727 240.799 81.7244 240.839 81.6847C240.879 81.6449 240.927 81.625 240.984 81.625C241.041 81.625 241.089 81.6449 241.129 81.6847C241.169 81.7244 241.189 81.7727 241.189 81.8295C241.189 81.8674 241.179 81.9025 241.16 81.9347C241.143 81.965 241.118 81.9886 241.086 82.0057C241.056 82.0246 241.022 82.0341 240.984 82.0341ZM115.434 89.312V90.4H116.082V89.312H115.434ZM112.49 88.96V89.496H119.026V88.96H112.49ZM115.434 85.368V86.344H116.09V85.368H115.434ZM115.402 86.424V86.544C115.402 87.368 114.274 87.944 112.874 88.064L113.074 88.576C114.658 88.416 115.986 87.728 115.986 86.544V86.424H115.402ZM115.538 86.424V86.544C115.538 87.728 116.866 88.416 118.45 88.576L118.65 88.064C117.25 87.944 116.122 87.368 116.122 86.544V86.424H115.538ZM113.162 86.096V86.624H118.362V86.096H113.162ZM115.754 90.216C114.194 90.216 113.274 90.64 113.274 91.416C113.274 92.192 114.194 92.608 115.754 92.608C117.314 92.608 118.234 92.192 118.234 91.416C118.234 90.64 117.314 90.216 115.754 90.216ZM115.754 90.72C116.898 90.72 117.562 90.96 117.562 91.416C117.562 91.856 116.898 92.104 115.754 92.104C114.61 92.104 113.946 91.856 113.946 91.416C113.946 90.96 114.61 90.72 115.754 90.72ZM119.849 89.208V89.752H126.401V89.208H119.849ZM122.841 89.48V91.144H123.505V89.48H122.841ZM120.681 91.92V92.464H125.673V91.92H120.681ZM120.681 90.504V92.128H121.337V90.504H120.681ZM120.721 85.616V88.512H125.537V85.616H124.873V86.536H121.377V85.616H120.721ZM121.377 87.056H124.873V87.976H121.377V87.056ZM132.464 85.392V92.624H133.128V85.392H132.464ZM127.376 86.56V87.096H131.712V86.56H127.376ZM129.552 87.688C128.512 87.688 127.768 88.376 127.768 89.352C127.768 90.328 128.512 91.016 129.552 91.016C130.592 91.016 131.344 90.328 131.344 89.352C131.344 88.376 130.592 87.688 129.552 87.688ZM129.552 88.24C130.216 88.24 130.704 88.696 130.704 89.352C130.704 90 130.216 90.464 129.552 90.464C128.888 90.464 128.4 90 128.4 89.352C128.4 88.696 128.888 88.24 129.552 88.24ZM129.208 85.464V86.888H129.872V85.464H129.208ZM139.722 86.104V86.408C139.722 87.36 138.482 88.192 137.21 88.376L137.466 88.904C138.922 88.656 140.298 87.704 140.298 86.408V86.104H139.722ZM139.89 86.104V86.408C139.89 87.704 141.258 88.656 142.722 88.904L142.97 88.376C141.706 88.192 140.458 87.36 140.458 86.408V86.104H139.89ZM139.746 89.864V92.624H140.402V89.864H139.746ZM136.826 89.512V90.056H143.362V89.512H136.826ZM137.434 85.84V86.376H142.73V85.84H137.434ZM146.529 85.912C145.401 85.912 144.585 86.608 144.585 87.616C144.585 88.632 145.401 89.328 146.529 89.328C147.657 89.328 148.465 88.632 148.465 87.616C148.465 86.608 147.657 85.912 146.529 85.912ZM146.529 86.488C147.273 86.488 147.817 86.944 147.817 87.616C147.817 88.288 147.273 88.752 146.529 88.752C145.777 88.752 145.233 88.288 145.233 87.616C145.233 86.944 145.777 86.488 146.529 86.488ZM149.409 85.384V92.632H150.073V85.384H149.409ZM144.313 91.048C145.601 91.048 147.369 91.04 148.993 90.728L148.937 90.24C147.361 90.488 145.537 90.496 144.217 90.496L144.313 91.048ZM156.441 85.392V92.624H157.105V85.392H156.441ZM156.945 88.36V88.92H158.289V88.36H156.945ZM151.505 86.544V87.088H155.769V86.544H151.505ZM153.665 87.688C152.649 87.688 151.905 88.376 151.905 89.352C151.905 90.328 152.649 91.016 153.665 91.016C154.689 91.016 155.425 90.328 155.425 89.352C155.425 88.376 154.689 87.688 153.665 87.688ZM153.665 88.24C154.321 88.24 154.793 88.696 154.793 89.352C154.793 90 154.321 90.464 153.665 90.464C153.009 90.464 152.537 90 152.537 89.352C152.537 88.696 153.009 88.24 153.665 88.24ZM153.321 85.48V86.792H153.985V85.48H153.321ZM164.16 85.4V90.696H164.832V85.4H164.16ZM160.184 91.92V92.464H165.048V91.92H160.184ZM160.184 90.208V92.176H160.84V90.208H160.184ZM160.784 85.792V86.528C160.784 87.648 160.064 88.704 158.976 89.128L159.32 89.664C160.536 89.168 161.336 87.936 161.336 86.528V85.792H160.784ZM160.904 85.792V86.528C160.904 87.904 161.704 89.064 162.904 89.528L163.256 88.992C162.176 88.6 161.448 87.616 161.448 86.528V85.792H160.904ZM168.849 86.216V86.752H174.665V86.216H168.849ZM168.513 90.08V90.624H175.065V90.08H168.513ZM171.441 90.52V92.632H172.105V90.52H171.441ZM171.777 87.168C170.297 87.168 169.425 87.6 169.425 88.376C169.425 89.144 170.297 89.584 171.777 89.584C173.249 89.584 174.121 89.144 174.121 88.376C174.121 87.6 173.249 87.168 171.777 87.168ZM171.777 87.68C172.833 87.68 173.441 87.928 173.441 88.376C173.441 88.824 172.833 89.072 171.777 89.072C170.721 89.072 170.113 88.824 170.113 88.376C170.113 87.928 170.721 87.68 171.777 87.68ZM171.441 85.352V86.576H172.105V85.352H171.441ZM180.043 86.184V86.92C180.043 87.952 179.307 88.888 178.219 89.272L178.563 89.8C179.779 89.36 180.595 88.248 180.595 86.92V86.184H180.043ZM180.171 86.184V86.92C180.171 88.192 181.003 89.248 182.203 89.656L182.547 89.136C181.475 88.776 180.723 87.896 180.723 86.92V86.184H180.171ZM178.395 85.992V86.528H182.355V85.992H178.395ZM183.379 85.4V90.688H184.051V85.4H183.379ZM179.403 91.92V92.464H184.267V91.92H179.403ZM179.403 90.192V92.16H180.059V90.192H179.403ZM190.938 85.392V89.968H191.57V85.392H190.938ZM189.762 87.352V87.904H191.13V87.352H189.762ZM189.394 85.536V89.712H190.018V85.536H189.394ZM185.442 86.256V86.784H189.106V86.256H185.442ZM187.282 87.152C186.37 87.152 185.738 87.648 185.738 88.392C185.738 89.144 186.37 89.632 187.282 89.632C188.186 89.632 188.818 89.144 188.818 88.392C188.818 87.648 188.186 87.152 187.282 87.152ZM187.282 87.648C187.842 87.648 188.226 87.944 188.226 88.392C188.226 88.848 187.842 89.136 187.282 89.136C186.714 89.136 186.33 88.848 186.33 88.392C186.33 87.944 186.714 87.648 187.282 87.648ZM186.954 85.448V86.552H187.602V85.448H186.954ZM189.202 90.096C187.682 90.096 186.786 90.544 186.786 91.352C186.786 92.152 187.682 92.608 189.202 92.608C190.706 92.608 191.61 92.152 191.61 91.352C191.61 90.544 190.706 90.096 189.202 90.096ZM189.202 90.608C190.298 90.608 190.954 90.872 190.954 91.352C190.954 91.832 190.298 92.104 189.202 92.104C188.09 92.104 187.442 91.832 187.442 91.352C187.442 90.872 188.09 90.608 189.202 90.608ZM192.825 86.624V87.168H196.409V86.624H192.825ZM194.617 87.648C193.721 87.648 193.065 88.328 193.065 89.304C193.065 90.272 193.721 90.952 194.617 90.952C195.521 90.952 196.177 90.272 196.177 89.304C196.177 88.328 195.521 87.648 194.617 87.648ZM194.617 88.216C195.177 88.216 195.585 88.664 195.585 89.304C195.585 89.944 195.177 90.392 194.617 90.392C194.065 90.392 193.665 89.944 193.665 89.304C193.665 88.664 194.065 88.216 194.617 88.216ZM198.321 85.392V92.624H198.961V85.392H198.321ZM197.169 88.432V88.984H198.537V88.432H197.169ZM196.777 85.552V92.272H197.401V85.552H196.777ZM194.297 85.6V86.96H194.953V85.6H194.297ZM203.097 86.104V86.408C203.097 87.36 201.857 88.192 200.585 88.376L200.841 88.904C202.297 88.656 203.673 87.704 203.673 86.408V86.104H203.097ZM203.265 86.104V86.408C203.265 87.704 204.633 88.656 206.097 88.904L206.345 88.376C205.081 88.192 203.833 87.36 203.833 86.408V86.104H203.265ZM203.121 89.864V92.624H203.777V89.864H203.121ZM200.201 89.512V90.056H206.737V89.512H200.201ZM200.809 85.84V86.376H206.105V85.84H200.809ZM210.408 87.976V88.528H211.792V87.976H210.408ZM209.056 86.072V87.448C209.056 88.688 208.464 89.984 207.472 90.568L207.888 91.072C208.944 90.424 209.576 88.96 209.576 87.448V86.072H209.056ZM209.184 86.072V87.424C209.184 88.832 209.768 90.272 210.808 90.912L211.192 90.392C210.24 89.816 209.696 88.584 209.696 87.424V86.072H209.184ZM213.064 85.392V92.624H213.704V85.392H213.064ZM211.6 85.544V92.264H212.224V85.544H211.6ZM216.52 89.112V91.28H217.176V89.112H216.52ZM219.192 89.112V91.28H219.856V89.112H219.192ZM214.92 91.152V91.704H221.472V91.152H214.92ZM218.184 85.848C216.648 85.848 215.552 86.576 215.552 87.712C215.552 88.84 216.648 89.568 218.184 89.568C219.712 89.568 220.808 88.84 220.808 87.712C220.808 86.576 219.712 85.848 218.184 85.848ZM218.184 86.376C219.344 86.376 220.168 86.904 220.168 87.712C220.168 88.512 219.344 89.04 218.184 89.04C217.024 89.04 216.192 88.512 216.192 87.712C216.192 86.904 217.024 86.376 218.184 86.376ZM222.89 92.0341C222.833 92.0341 222.785 92.0142 222.745 91.9744C222.706 91.9347 222.686 91.8864 222.686 91.8295C222.686 91.7727 222.706 91.7244 222.745 91.6847C222.785 91.6449 222.833 91.625 222.89 91.625C222.947 91.625 222.995 91.6449 223.035 91.6847C223.075 91.7244 223.095 91.7727 223.095 91.8295C223.095 91.8674 223.085 91.9025 223.066 91.9347C223.049 91.965 223.025 91.9886 222.993 92.0057C222.962 92.0246 222.928 92.0341 222.89 92.0341Z" fill="#858585"/>
</svg>
