<svg width="621" height="322" viewBox="0 0 621 322" fill="none" xmlns="http://www.w3.org/2000/svg">
<rect width="621" height="322" rx="9" fill="white"/>
<path d="M203.182 138.568V167.496H205.742V138.568H203.182ZM197.614 139.272V165.992H200.142V139.272H197.614ZM181.294 142.184V144.36H194.51V142.184H181.294ZM181.038 160.456C184.814 160.456 190.798 160.328 195.278 159.528L195.118 157.576C190.798 158.12 184.558 158.216 180.718 158.216L181.038 160.456ZM183.694 143.624V158.76H186.126V143.624H183.694ZM189.71 143.624V158.76H192.142V143.624H189.71ZM193.838 146.792V148.968H198.99V146.792H193.838ZM193.838 152.936V155.112H198.99V152.936H193.838ZM231.531 138.568V167.496H234.187V138.568H231.531ZM223.051 141.672V142.12C223.051 149.8 219.179 155.944 210.827 159.976L212.235 162.12C221.899 157.384 225.675 150.056 225.675 141.672H223.051ZM212.139 141.672V143.848H224.203V141.672H212.139ZM256.061 141.736V144.68C256.061 148.808 253.117 152.552 248.765 154.088L250.141 156.2C255.005 154.44 258.269 149.992 258.269 144.68V141.736H256.061ZM256.573 141.736V144.68C256.573 149.768 259.901 153.992 264.701 155.624L266.077 153.544C261.789 152.104 258.781 148.584 258.781 144.68V141.736H256.573ZM249.469 140.968V143.112H265.309V140.968H249.469ZM269.405 138.6V159.752H272.093V138.6H269.405ZM253.501 164.68V166.856H272.957V164.68H253.501ZM253.501 157.768V165.64H256.125V157.768H253.501ZM299.643 138.568V156.872H302.171V138.568H299.643ZM294.939 146.408V148.616H300.411V146.408H294.939ZM293.467 139.144V155.848H295.963V139.144H293.467ZM277.659 142.024V144.136H292.315V142.024H277.659ZM285.019 145.608C281.371 145.608 278.843 147.592 278.843 150.568C278.843 153.576 281.371 155.528 285.019 155.528C288.635 155.528 291.163 153.576 291.163 150.568C291.163 147.592 288.635 145.608 285.019 145.608ZM285.019 147.592C287.259 147.592 288.795 148.776 288.795 150.568C288.795 152.392 287.259 153.544 285.019 153.544C282.747 153.544 281.211 152.392 281.211 150.568C281.211 148.776 282.747 147.592 285.019 147.592ZM283.707 138.792V143.208H286.299V138.792H283.707ZM292.699 157.384C286.619 157.384 283.035 159.176 283.035 162.408C283.035 165.608 286.619 167.432 292.699 167.432C298.715 167.432 302.331 165.608 302.331 162.408C302.331 159.176 298.715 157.384 292.699 157.384ZM292.699 159.432C297.083 159.432 299.707 160.488 299.707 162.408C299.707 164.328 297.083 165.416 292.699 165.416C288.251 165.416 285.659 164.328 285.659 162.408C285.659 160.488 288.251 159.432 292.699 159.432ZM318.968 153.032V158.088H321.624V153.032H318.968ZM307.224 152.104V154.248H333.368V152.104H307.224ZM320.28 157.288C314.072 157.288 310.36 159.112 310.36 162.376C310.36 165.608 314.072 167.432 320.28 167.432C326.488 167.432 330.2 165.608 330.2 162.376C330.2 159.112 326.488 157.288 320.28 157.288ZM320.28 159.336C324.824 159.336 327.512 160.424 327.512 162.376C327.512 164.296 324.824 165.384 320.28 165.384C315.768 165.384 313.048 164.296 313.048 162.376C313.048 160.424 315.768 159.336 320.28 159.336ZM318.584 140.936V141.8C318.584 145.096 313.88 147.688 308.696 148.232L309.656 150.344C315.64 149.608 320.952 146.472 320.952 141.8V140.936H318.584ZM319.704 140.936V141.8C319.704 146.472 324.984 149.608 330.968 150.344L331.928 148.232C326.744 147.688 322.04 145.096 322.04 141.8V140.936H319.704ZM309.624 139.88V142.024H331.032V139.88H309.624ZM357.718 138.568V154.088H360.406V138.568H357.718ZM341.75 155.528V167.112H360.406V155.528H357.782V159.048H344.374V155.528H341.75ZM344.374 161.16H357.782V164.968H344.374V161.16ZM344.886 139.944C340.502 139.944 337.334 142.664 337.334 146.6C337.334 150.568 340.502 153.288 344.886 153.288C349.27 153.288 352.406 150.568 352.406 146.6C352.406 142.664 349.27 139.944 344.886 139.944ZM344.886 142.152C347.766 142.152 349.846 143.976 349.846 146.6C349.846 149.224 347.766 151.048 344.886 151.048C342.006 151.048 339.926 149.224 339.926 146.6C339.926 143.976 342.006 142.152 344.886 142.152ZM387.155 138.568V167.496H389.811V138.568H387.155ZM367.955 141.384V159.304H370.579V141.384H367.955ZM367.955 157.736V160.04H370.323C374.899 160.04 379.475 159.688 384.499 158.664L384.179 156.392C379.283 157.416 374.707 157.736 370.323 157.736H367.955ZM415.121 138.536V167.528H417.809V138.536H415.121ZM417.169 149.96V152.2H422.545V149.96H417.169ZM396.785 158.088V160.328H399.057C404.497 160.328 408.305 160.168 412.753 159.336L412.465 157.096C408.145 157.896 404.401 158.088 399.057 158.088H396.785ZM396.785 141.352V159.08H399.409V143.528H410.225V141.352H396.785ZM427.929 165.216C427.308 165.216 426.774 164.996 426.327 164.557C425.88 164.11 425.656 163.572 425.656 162.943C425.656 162.322 425.88 161.792 426.327 161.352C426.774 160.905 427.308 160.682 427.929 160.682C428.55 160.682 429.084 160.905 429.531 161.352C429.978 161.792 430.202 162.322 430.202 162.943C430.202 163.36 430.096 163.742 429.884 164.091C429.679 164.432 429.406 164.705 429.065 164.909C428.724 165.114 428.346 165.216 427.929 165.216ZM182.668 174V175.088H186.396V174H182.668ZM178.604 172.016V172.976C178.604 174.832 177.116 176.656 175.004 177.376L175.644 178.416C178.06 177.6 179.692 175.408 179.692 172.976V172.016H178.604ZM178.86 172.016V172.992C178.86 175.296 180.428 177.312 182.796 178.08L183.436 177.04C181.356 176.384 179.948 174.72 179.948 172.992V172.016H178.86ZM175.404 171.52V172.608H183.132V171.52H175.404ZM185.516 170.784V178.24H186.844V170.784H185.516ZM177.532 178.976V180.032H185.532V181.456H177.564V184.688H178.86V182.448H186.844V178.976H177.532ZM177.564 184.032V185.088H187.372V184.032H177.564ZM193.195 174.224V175.456C193.195 177.952 191.659 180.416 189.531 181.44L190.283 182.464C192.571 181.328 194.235 178.512 194.235 175.456V174.224H193.195ZM193.451 174.224V175.456C193.451 178.336 195.019 181.072 197.275 182.192L198.011 181.168C195.947 180.144 194.491 177.792 194.491 175.456V174.224H193.451ZM189.931 173.296V174.368H197.691V173.296H189.931ZM193.179 171.04V173.888H194.491V171.04H193.179ZM199.451 170.784V185.248H200.795V170.784H199.451ZM200.475 176.72V177.824H203.163V176.72H200.475ZM214.17 170.768V185.248H215.514V170.768H214.17ZM215.146 176.64V177.744H217.818V176.64H215.146ZM210.474 172.336V172.544C210.474 176.368 208.474 179.456 204.474 181.488L205.21 182.512C209.882 180.16 211.77 176.448 211.77 172.336H210.474ZM205.146 172.336V173.424H211.162V172.336H205.146ZM227.075 176.784V178.976H228.403V176.784H227.075ZM227.699 171.44C225.619 171.44 224.147 172.592 224.147 174.304C224.147 176.016 225.619 177.152 227.699 177.152C229.795 177.152 231.267 176.016 231.267 174.304C231.267 172.592 229.795 171.44 227.699 171.44ZM227.699 172.464C229.075 172.464 230.019 173.216 230.019 174.304C230.019 175.408 229.075 176.144 227.699 176.144C226.339 176.144 225.395 175.408 225.395 174.304C225.395 173.216 226.339 172.464 227.699 172.464ZM233.219 170.8V181.856H234.547V170.8H233.219ZM233.987 175.68V176.784H236.659V175.68H233.987ZM225.395 183.824V184.928H235.059V183.824H225.395ZM225.395 180.912V184.304H226.723V180.912H225.395ZM223.491 179.712C225.971 179.712 229.395 179.68 232.419 179.12L232.323 178.144C229.379 178.592 225.859 178.624 223.315 178.624L223.491 179.712ZM241.714 179.264V182.816H243.026V179.264H241.714ZM246.338 179.232V182.8H247.634V179.232H246.338ZM238.066 182.368V183.472H251.17V182.368H238.066ZM239.65 171.856V172.928H248.242V175.168H239.698V179.136H241.01V176.224H249.554V171.856H239.65ZM239.698 178.544V179.632H249.89V178.544H239.698ZM253.92 177.008V178.096H261.328V177.008H253.92ZM256.88 177.872V181.2H258.224V177.872H256.88ZM253.92 172.144V177.392H255.248V173.232H261.248V172.144H253.92ZM263.232 170.768V185.264H264.56V170.768H263.232ZM253.04 182.128C255.776 182.144 259.232 182.08 262.4 181.6L262.288 180.608C259.232 180.976 255.68 181.008 252.848 181.024L253.04 182.128ZM274.431 173.328V174.416H278.479V173.328H274.431ZM274.431 176.416V177.52H278.511V176.416H274.431ZM268.159 172.032V178.816H274.767V172.032H268.159ZM273.455 173.104V177.744H269.455V173.104H273.455ZM278.063 170.8V181.36H279.391V170.8H278.063ZM270.095 183.84V184.928H279.743V183.84H270.095ZM270.095 180.4V184.336H271.423V180.4H270.095ZM290.024 172.848V175.2C290.024 177.648 288.28 180.4 286.216 181.408L286.984 182.464C289.24 181.312 291.08 178.208 291.08 175.2V172.848H290.024ZM290.264 172.848V175.2C290.264 178.064 292.008 180.976 294.296 182.112L295.048 181.056C292.952 180.064 291.32 177.488 291.32 175.2V172.848H290.264ZM286.728 172.256V173.376H294.52V172.256H286.728ZM296.232 170.784V185.248H297.576V170.784H296.232ZM297.256 176.624V177.744H299.944V176.624H297.256ZM301.175 177.904V178.992H314.247V177.904H301.175ZM307.047 175.584V178.352H308.359V175.584H307.047ZM302.823 175.168V176.256H312.727V175.168H302.823ZM302.823 171.44V175.808H304.135V172.512H312.615V171.44H302.823ZM307.687 180.032C304.599 180.032 302.727 180.976 302.727 182.624C302.727 184.304 304.599 185.232 307.687 185.232C310.775 185.232 312.647 184.304 312.647 182.624C312.647 180.976 310.775 180.032 307.687 180.032ZM307.687 181.056C309.959 181.056 311.303 181.632 311.303 182.624C311.303 183.632 309.959 184.192 307.687 184.192C305.431 184.192 304.071 183.632 304.071 182.624C304.071 181.632 305.431 181.056 307.687 181.056ZM322.422 171.696C319.414 171.696 317.158 173.296 317.158 175.696C317.158 178.112 319.414 179.696 322.422 179.696C325.43 179.696 327.67 178.112 327.67 175.696C327.67 173.296 325.43 171.696 322.422 171.696ZM322.422 172.784C324.71 172.784 326.406 173.952 326.406 175.696C326.406 177.424 324.71 178.608 322.422 178.608C320.134 178.608 318.438 177.424 318.438 175.696C318.438 173.952 320.134 172.784 322.422 172.784ZM315.894 182.224V183.344H328.998V182.224H315.894ZM330.613 182.368V183.472H343.717V182.368H330.613ZM336.469 179.264V182.832H337.797V179.264H336.469ZM332.197 171.856V172.928H340.789V175.168H332.245V179.136H333.557V176.24H342.101V171.856H332.197ZM332.245 178.576V179.664H342.437V178.576H332.245ZM353.166 173.28V173.904C353.166 175.84 351.726 177.568 349.582 178.24L350.222 179.28C352.638 178.48 354.254 176.416 354.254 173.904V173.28H353.166ZM353.406 173.28V173.904C353.406 176.224 354.99 178.176 357.406 178.912L358.03 177.872C355.902 177.248 354.494 175.648 354.494 173.904V173.28H353.406ZM349.966 172.528V173.6H357.678V172.528H349.966ZM353.166 170.72V172.912H354.494V170.72H353.166ZM359.454 170.784V179.648H360.782V170.784H359.454ZM360.414 174.512V175.632H362.926V174.512H360.414ZM356.174 180C353.214 180 351.422 180.96 351.422 182.608C351.422 184.272 353.214 185.216 356.174 185.216C359.134 185.216 360.926 184.272 360.926 182.608C360.926 180.96 359.134 180 356.174 180ZM356.174 181.04C358.318 181.04 359.63 181.616 359.63 182.608C359.63 183.6 358.318 184.176 356.174 184.176C354.03 184.176 352.718 183.6 352.718 182.608C352.718 181.616 354.03 181.04 356.174 181.04ZM374.78 170.768V185.264H376.108V170.768H374.78ZM368.476 171.888C366.348 171.888 364.812 173.856 364.812 176.928C364.812 180.016 366.348 181.984 368.476 181.984C370.62 181.984 372.156 180.016 372.156 176.928C372.156 173.856 370.62 171.888 368.476 171.888ZM368.476 173.088C369.9 173.088 370.876 174.592 370.876 176.928C370.876 179.28 369.9 180.816 368.476 180.816C367.068 180.816 366.076 179.28 366.076 176.928C366.076 174.592 367.068 173.088 368.476 173.088ZM393.126 170.784V178.928H394.454V170.784H393.126ZM394.086 174.176V175.296H396.598V174.176H394.086ZM383.894 176.992V178.096H385.014C388.054 178.096 389.766 178 391.75 177.584L391.606 176.512C389.67 176.896 387.99 176.992 385.014 176.992H383.894ZM383.894 171.728V177.648H385.206V172.8H390.262V171.728H383.894ZM385.414 179.728V184.48H386.742V180.816H394.582V179.728H385.414ZM385.414 183.984V185.056H394.854V183.984H385.414ZM408.468 170.784V179.152H409.812V170.784H408.468ZM400.484 179.824V185.056H409.812V179.824H408.5V181.36H401.796V179.824H400.484ZM401.796 182.4H408.5V183.984H401.796V182.4ZM398.164 172.336V173.408H406.948V172.336H398.164ZM402.548 174.096C400.42 174.096 399.028 175.056 399.028 176.576C399.028 178.112 400.42 179.056 402.548 179.056C404.692 179.056 406.084 178.112 406.084 176.576C406.084 175.056 404.692 174.096 402.548 174.096ZM402.548 175.104C403.924 175.104 404.82 175.664 404.82 176.576C404.82 177.488 403.924 178.064 402.548 178.064C401.188 178.064 400.276 177.488 400.276 176.576C400.276 175.664 401.188 175.104 402.548 175.104ZM401.892 170.656V173.12H403.22V170.656H401.892ZM423.187 170.784V185.248H424.515V170.784H423.187ZM413.587 172.192V181.152H414.899V172.192H413.587ZM413.587 180.368V181.52H414.771C417.059 181.52 419.347 181.344 421.859 180.832L421.699 179.696C419.251 180.208 416.963 180.368 414.771 180.368H413.587ZM437.17 170.768V185.264H438.514V170.768H437.17ZM438.194 176.48V177.6H440.882V176.48H438.194ZM428.002 180.544V181.664H429.138C431.858 181.664 433.762 181.584 435.986 181.168L435.842 180.048C433.682 180.448 431.81 180.544 429.138 180.544H428.002ZM428.002 172.176V181.04H429.314V173.264H434.722V172.176H428.002ZM443.574 184.108C443.263 184.108 442.996 183.998 442.773 183.778C442.549 183.555 442.438 183.286 442.438 182.972C442.438 182.661 442.549 182.396 442.773 182.176C442.996 181.953 443.263 181.841 443.574 181.841C443.884 181.841 444.152 181.953 444.375 182.176C444.598 182.396 444.71 182.661 444.71 182.972C444.71 183.18 444.657 183.371 444.551 183.545C444.449 183.716 444.312 183.852 444.142 183.955C443.972 184.057 443.782 184.108 443.574 184.108Z" fill="#393939"/>
</svg>
